<?xml version="1.0" encoding="iso-8859-1"?>
<!-- Generator: Adobe Illustrator 19.0.0, SVG Export Plug-In . SVG Version: 6.00 Build 0)  -->
<svg version="1.1" id="Layer_1" xmlns="http://www.w3.org/2000/svg" xmlns:xlink="http://www.w3.org/1999/xlink" x="0px" y="0px"
	 viewBox="0 0 512 512" style="enable-background:new 0 0 512 512;" xml:space="preserve">
<g>
	<g>
		<path d="M467.499,286.59c-17.552,0-33.501,10.364-40.63,26.404l-8.661,19.489c-10.516,23.663-32.52,39.925-57.713,43.417
			c1.509-4.494,2.34-9.296,2.34-14.292c0-24.819-20.192-45.011-45.011-45.011c-0.002,0-33.95,0-66.762-0.027
			c-13.513-0.011-32.765-2.287-47.736-13.063c-15.378-11.068-33.546-16.917-52.541-16.917c-26.788,0-51.342,11.922-68.021,31.112
			c-2.264-1.369-4.907-2.172-7.746-2.172H15.004C6.718,315.531,0,322.249,0,330.535V480.57c0,8.286,6.718,15.003,15.004,15.003
			h60.014c8.286,0,15.004-6.718,15.004-15.003v-2.39c23.316,12.009,49.442,18.359,75.741,18.359h152.826
			c84.086,0,158.446-53.497,185.036-133.266l6.054-18.162C519.287,316.281,497.876,286.59,467.499,286.59z M60.014,465.566H30.007
			V345.538h30.007V465.566z M481.211,335.622l-6.054,18.161c-22.499,67.499-85.419,112.849-156.569,112.849H165.762
			c-26.87,0-53.513-8.238-75.741-23.282v-73.672c0.882-1.451,1.545-3.068,1.898-4.83c0.002-0.011,0.004-0.021,0.007-0.032
			c5.56-27.941,30.312-48.217,58.858-48.217c12.666,0,24.774,3.895,35.011,11.265c16.981,12.223,39.54,18.594,65.241,18.615
			c32.825,0.027,66.787,0.027,66.787,0.027c8.273,0,15.004,6.831,15.004,15.104c0,8.273-6.731,15.004-15.004,15.004H195.795
			c-8.286,0-15.004,6.718-15.004,15.004c0,8.286,6.718,14.903,15.004,14.903h154.509c41.181,0,78.598-24.216,95.323-61.849
			l8.662-19.489c2.318-5.214,7.502-8.584,13.209-8.584C477.377,316.597,484.333,326.253,481.211,335.622z"/>
	</g>
</g>
<g>
	<g>
		<path d="M376.088,135.489h-45.011V90.478c0-8.286-6.718-15.004-15.003-15.004c-8.286,0-15.004,6.718-15.004,15.004v60.014
			c0,8.286,6.718,15.004,15.004,15.004h60.014c8.286,0,15.004-6.718,15.004-15.004C391.092,142.206,384.374,135.489,376.088,135.489
			z"/>
	</g>
</g>
<g>
	<g>
		<path d="M316.074,15.461c-74.456,0-135.032,60.575-135.032,135.032s60.575,135.032,135.032,135.032
			c74.456,0,135.032-60.575,135.032-135.032S390.531,15.461,316.074,15.461z M316.074,255.517
			c-57.911,0-105.025-47.114-105.025-105.025S258.164,45.468,316.074,45.468c57.911,0,105.025,47.114,105.025,105.025
			S373.985,255.517,316.074,255.517z"/>
	</g>
</g>
<g>
</g>
<g>
</g>
<g>
</g>
<g>
</g>
<g>
</g>
<g>
</g>
<g>
</g>
<g>
</g>
<g>
</g>
<g>
</g>
<g>
</g>
<g>
</g>
<g>
</g>
<g>
</g>
<g>
</g>
</svg>
