<?xml version="1.0" encoding="utf-8"?>
<!-- Generator: Adobe Illustrator 19.0.0, SVG Export Plug-In . SVG Version: 6.00 Build 0)  -->
<svg version="1.1" id="Layer_1" xmlns="http://www.w3.org/2000/svg" xmlns:xlink="http://www.w3.org/1999/xlink" x="0px" y="0px"
	 viewBox="0 0 296 296" style="enable-background:new 0 0 296 296;" xml:space="preserve">
<style type="text/css">
	.st0{fill:#00AEEF;}
</style>
<path class="st0" d="M200.5,151.3V75.7h-50V25.2H24.2V253h124.9v25.2H32.3c-33.8,1.5-32.3-26-32.3-26V26C0.4,1.1,24.2,0,24.2,0
	h143.2l58,57.9v93.5H200.5L200.5,151.3z M49.3,138.7v-26h100.5v26H49.3L49.3,138.7z M49.3,189.9v-26h75.6v26H49.3L49.3,189.9z
	 M237.2,296l-58-60.1l16.9-17.1l29.4,29.7l-0.7-71.2h25.7v70.5l28.6-28.9l16.9,17.8L237.2,296L237.2,296z"/>
</svg>
