<?xml version="1.0" encoding="iso-8859-1"?>
<!-- Generator: Adobe Illustrator 19.0.0, SVG Export Plug-In . SVG Version: 6.00 Build 0)  -->
<svg version="1.1" id="Capa_1" xmlns="http://www.w3.org/2000/svg" xmlns:xlink="http://www.w3.org/1999/xlink" x="0px" y="0px"
	 viewBox="0 0 512.002 512.002" style="enable-background:new 0 0 512.002 512.002;" xml:space="preserve">
<g>
	<g>
		<g>
			<path d="M423.96,105.054v46.392c0,4.142,3.357,7.5,7.5,7.5c4.143,0,7.5-3.358,7.5-7.5v-46.392c0-4.142-3.357-7.5-7.5-7.5
				C427.317,97.554,423.96,100.912,423.96,105.054z"/>
			<path d="M457.422,53.69h-51.924c-9.254,0-16.783,7.529-16.783,16.783v115.554c0,9.254,7.529,16.783,16.783,16.783h51.924
				c9.254,0,16.783-7.529,16.783-16.783v-64.415c0-4.142-3.357-7.5-7.5-7.5c-4.143,0-7.5,3.358-7.5,7.5v64.415
				c0,0.983-0.8,1.783-1.783,1.783h-51.924c-0.983,0-1.783-0.8-1.783-1.783V70.473c0-0.983,0.8-1.783,1.783-1.783h51.924
				c0.983,0,1.783,0.8,1.783,1.783v12.032c0,4.142,3.357,7.5,7.5,7.5c4.143,0,7.5-3.358,7.5-7.5V70.473
				C474.205,61.219,466.676,53.69,457.422,53.69z"/>
			<path d="M271.707,206.935c1.919,0,3.839-0.732,5.304-2.197c2.929-2.929,2.929-7.678-0.001-10.607l-7.175-7.174
				c-2.928-2.929-7.677-2.928-10.606,0.001c-2.929,2.929-2.929,7.678,0.001,10.607l7.175,7.174
				C267.868,206.203,269.788,206.935,271.707,206.935z"/>
			<path d="M217.925,246.884c-4.138-0.287-7.713,2.837-7.996,6.969c-0.283,4.132,2.837,7.712,6.969,7.996
				c0.663,0.045,1.325,0.068,1.985,0.068c7.637,0,14.986-3.02,20.418-8.451c5.9-5.901,8.955-14.066,8.382-22.403
				c-0.284-4.132-3.879-7.246-7.997-6.968c-4.132,0.284-7.252,3.865-6.968,7.997c0.275,4.009-1.191,7.934-4.023,10.767
				C225.861,245.692,221.919,247.156,217.925,246.884z"/>
			<path d="M315.914,333.17c-2.929,2.929-2.929,7.678,0,10.607l95.007,95.007c1.465,1.464,3.385,2.197,5.304,2.197
				s3.839-0.732,5.304-2.197c2.929-2.929,2.929-7.678,0-10.606l-95.007-95.007C323.592,330.241,318.844,330.241,315.914,333.17z"/>
			<path d="M190.571,291.176c2.93-2.929,2.93-7.678,0.001-10.607l-7.174-7.174c-2.929-2.928-7.678-2.929-10.607-0.001
				c-2.93,2.929-2.93,7.678-0.001,10.607l7.174,7.174c1.465,1.464,3.384,2.197,5.304,2.197
				C187.188,293.373,189.107,292.64,190.571,291.176z"/>
			<path d="M478.16,12.881H274.908c-18.04,0-35.503,7.51-47.911,20.604l-19.483,20.561c-4.429-6.974-9.615-13.473-15.525-19.383
				c-21.247-21.247-49.497-32.949-79.547-32.949c-30.048,0-58.298,11.701-79.549,32.951c-43.858,43.861-43.858,115.23,0.002,159.091
				c7.59,7.59,16.078,13.954,25.218,19.01c-2.941,42.754,12.549,84.318,42.957,114.725c28.235,28.235,66.137,43.31,104.725,43.308
				c16.144-0.001,32.413-2.641,48.136-8.06l12.658,12.658l-5.972,18.831c-2.38,7.505-0.399,15.626,5.168,21.194
				c5.567,5.567,13.689,7.545,21.193,5.168l9.49-3.009l-3.009,9.488c-2.38,7.506-0.4,15.627,5.167,21.195
				c5.567,5.566,13.688,7.548,21.194,5.168l9.49-3.009l-3.01,9.49c-2.38,7.505-0.399,15.626,5.169,21.193
				c5.565,5.567,13.689,7.548,21.193,5.168l18.83-5.971l12.484,12.484c10.642,10.641,24.788,16.668,39.833,16.972l25.679,0.518
				c0.298,0.006,0.594,0.009,0.891,0.009c11.391,0,22.068-4.419,30.149-12.501c8.293-8.292,12.729-19.316,12.493-31.042
				l-0.518-25.678c-0.303-15.046-6.33-29.193-16.972-39.834l-11.93-11.935c-2.93-2.929-7.678-2.929-10.607,0s-2.929,7.678,0,10.606
				l11.935,11.934c7.889,7.888,12.356,18.375,12.582,29.529l0.518,25.678c0.152,7.605-2.725,14.755-8.104,20.133
				c-5.378,5.378-12.529,8.269-20.131,8.102l-25.679-0.518c-11.153-0.225-21.641-4.693-29.53-12.582l-15.708-15.707
				c-1.979-1.98-4.898-2.692-7.569-1.846l-23.177,7.349c-3.13,0.992-5.277-0.701-6.053-1.476c-0.775-0.775-2.472-2.917-1.477-6.053
				l5.601-17.663c1.195-3.773,0.199-7.855-2.6-10.654c-2.799-2.798-6.881-3.792-10.652-2.597l-17.662,5.601
				c-3.131,0.993-5.278-0.701-6.053-1.476s-2.471-2.917-1.476-6.054l5.599-17.659c1.197-3.772,0.203-7.855-2.596-10.654
				s-6.882-3.795-10.655-2.599l-17.661,5.6c-3.141,0.996-5.279-0.701-6.054-1.476c-0.774-0.775-2.471-2.917-1.476-6.053l7.35-23.177
				c0.847-2.67,0.135-5.59-1.846-7.57l-19.258-19.257c-2.094-2.093-5.22-2.757-7.98-1.703c-15.408,5.888-31.463,8.748-47.398,8.747
				c-34.67-0.002-68.739-13.549-94.106-38.916c-25.957-25.956-39.816-60.96-38.872-97.337c6.505,2.445,13.245,4.287,20.155,5.487
				c0.566,29.016,12.373,56.976,32.981,77.586c7.273,7.273,15.463,13.502,24.342,18.513c1.165,0.658,2.431,0.97,3.68,0.97
				c2.617,0,5.16-1.372,6.538-3.815c2.036-3.607,0.763-8.182-2.845-10.218c-7.694-4.343-14.796-9.746-21.107-16.057
				c-17.424-17.424-27.597-40.912-28.545-65.401c1.475,0.057,2.953,0.094,4.437,0.094c30.049,0,58.299-11.702,79.546-32.949
				c4.426-4.426,6.863-10.31,6.863-16.567c0-6.258-2.438-12.142-6.862-16.566c-4.425-4.426-10.309-6.863-16.567-6.863
				s-12.142,2.438-16.567,6.862c-11.073,11.073-25.41,17.687-40.839,18.977c4.691-9.514,10.897-18.16,18.536-25.799
				c18.458-18.459,43.001-28.624,69.106-28.624s50.647,10.165,69.106,28.624c18.46,18.459,28.626,43.002,28.626,69.107
				c0,26.105-10.166,50.647-28.626,69.107c-21.807,21.808-53.062,32.104-83.608,27.55c-4.094-0.609-7.913,2.215-8.524,6.312
				c-0.611,4.097,2.215,7.913,6.312,8.524c5.5,0.82,11.015,1.223,16.51,1.223c29.702,0,58.69-11.775,79.918-33.002
				c21.292-21.292,33.018-49.601,33.018-79.713c0-30.112-11.727-58.421-33.018-79.714c-21.292-21.292-49.602-33.018-79.714-33.018
				c-30.111,0-58.421,11.726-79.714,33.018c-10.393,10.394-18.49,22.411-24.13,35.786c-6.737-1.091-13.208-3.219-19.228-6.301
				c6.662-16.381,16.423-31.079,29.094-43.749c19.014-19.014,42.777-31.55,68.613-36.516c0.34-0.036,0.678-0.104,1.016-0.188
				c3.094-0.57,6.217-1.031,9.365-1.382c0.16-0.013,0.319-0.03,0.477-0.053c4.785-0.516,9.624-0.787,14.506-0.787
				c35.5,0,68.876,13.824,93.978,38.926c28.359,28.359,41.923,67.582,38.328,106.376c-0.004,0.038-0.007,0.076-0.011,0.114
				c-1.105,11.818-3.784,23.596-8.147,35.014c-1.056,2.763-0.389,5.889,1.702,7.98l94.189,94.189
				c1.465,1.464,3.385,2.197,5.304,2.197s3.839-0.733,5.304-2.197c2.929-2.929,2.929-7.678,0-10.607l-90.814-90.813
				c3.12-9.051,5.296-18.281,6.601-27.564h126.071c18.659,0,33.84-15.181,33.84-33.84V46.722
				C512,28.062,496.819,12.881,478.16,12.881z M101.072,118.322c-13.36,13.358-23.811,28.749-31.182,45.843
				c-1.322-1.13-2.617-2.301-3.86-3.543c-12.375-12.375-19.19-28.858-19.19-46.412s6.815-34.037,19.191-46.412
				c12.396-12.397,28.879-19.224,46.411-19.224c17.532,0,34.015,6.827,46.411,19.224c3.658,3.658,6.84,7.681,9.515,12.024
				C143.696,86.207,120.36,99.033,101.072,118.322z M186.4,76.329c-0.863,0.113-1.726,0.228-2.588,0.356
				c-3.766-7.162-8.565-13.708-14.351-19.494c-15.23-15.23-35.479-23.618-57.019-23.618c-21.539,0-41.788,8.388-57.018,23.618
				C40.215,72.399,31.839,92.649,31.839,114.21s8.376,41.811,23.584,57.019c13.779,13.779,31.672,21.934,50.906,23.367
				c0.009,0.001,0.017,0.002,0.026,0.002c2.017,0.15,4.044,0.249,6.087,0.249c21.538,0,41.788-8.388,57.018-23.618
				c1.593-1.592,3.71-2.469,5.962-2.469c2.251,0,4.367,0.876,5.96,2.469c1.592,1.592,2.469,3.709,2.469,5.96
				c0,2.251-0.877,4.368-2.47,5.96c-18.414,18.415-42.896,28.556-68.94,28.556c-26.041,0-50.524-10.141-68.94-28.556
				C5.49,145.136,5.489,83.285,43.502,45.271c18.416-18.415,42.899-28.556,68.941-28.556c26.042,0,50.525,10.141,68.94,28.555
				c6.038,6.037,11.207,12.772,15.443,20.058L186.4,76.329z M497,209.778c0,10.389-8.451,18.84-18.84,18.84H353.424
				c1.525-40.488-13.592-80.706-43.182-110.296c-28.182-28.181-65-42.582-102.013-43.221l29.657-31.298
				c9.588-10.119,23.082-15.922,37.022-15.922H478.16c10.389,0,18.84,8.452,18.84,18.84V209.778z"/>
		</g>
	</g>
</g>
<g>
</g>
<g>
</g>
<g>
</g>
<g>
</g>
<g>
</g>
<g>
</g>
<g>
</g>
<g>
</g>
<g>
</g>
<g>
</g>
<g>
</g>
<g>
</g>
<g>
</g>
<g>
</g>
<g>
</g>
</svg>
