<?xml version="1.0" encoding="iso-8859-1"?>
<!-- Generator: Adobe Illustrator 19.0.0, SVG Export Plug-In . SVG Version: 6.00 Build 0)  -->
<svg version="1.1" id="Capa_1" xmlns="http://www.w3.org/2000/svg" xmlns:xlink="http://www.w3.org/1999/xlink" x="0px" y="0px"
	 viewBox="0 0 512 512" style="enable-background:new 0 0 512 512;" xml:space="preserve">
<g>
	<g>
		<path d="M412,86.466c-8.142,0-15.135,4.873-18.255,11.856l-38.888,17.46l12.287,27.368l39.07-17.542
			c1.833,0.553,3.773,0.858,5.786,0.858c11.046,0,20-8.954,20-20S423.046,86.466,412,86.466z"/>
	</g>
</g>
<g>
	<g>
		<path d="M393.04,341.316c-32.88-3.391-66.172,2.669-95.557,17.149H223v50H105c-13.785,0-25-11.215-25-25v-118h30v14
			c0,30.327,24.673,55,55,55h207c30.327,0,55-24.673,55-55v-14h40v-76.527c27.091-17.91,45-48.637,45-83.473
			c0-55.14-44.859-100-100-100s-100,44.86-100,100c0,34.836,17.909,65.563,45,83.473v76.527h40v14c0,13.785-11.215,25-25,25H165
			c-13.785,0-25-11.215-25-25v-14h163v-260H0v260h50v118c0,30.327,24.673,55,55,55h118v50h74.488
			c24.049,11.853,50.698,18.07,77.635,18.069c5.633,0,11.278-0.271,16.914-0.82c40.202-3.911,78.098-21.821,106.706-50.43
			c17.546-17.545,17.546-46.094,0-63.64C470.392,363.294,432.853,345.42,393.04,341.316z M342,105.465c0-38.598,31.402-70,70-70
			c38.598,0,70,31.402,70,70c0,38.598-31.402,70-70,70C373.402,175.465,342,144.063,342,105.465z M387,235.465v-33.164
			c7.993,2.065,16.371,3.164,25,3.164c8.629,0,17.007-1.099,25-3.164v33.164H387z M243.965,35.466H273v200h-29.035
			c3.848-7.507,6.035-16,6.035-25v-150C250,51.466,247.813,42.972,243.965,35.466z M30,235.465v-200h165c13.785,0,25,11.215,25,25
			v150c0,13.785-11.215,25-25,25H30z M273,458.465h-20v-70h20V458.465z M477.53,434.072c-23.705,23.705-55.099,38.544-88.398,41.784
			c-29.971,2.917-60.228-3.605-86.132-18.417v-67.946c26.142-14.951,56.749-21.45,86.964-18.334
			c32.977,3.399,64.074,18.208,87.566,41.7C483.379,418.707,483.379,428.224,477.53,434.072z"/>
	</g>
</g>
<g>
</g>
<g>
</g>
<g>
</g>
<g>
</g>
<g>
</g>
<g>
</g>
<g>
</g>
<g>
</g>
<g>
</g>
<g>
</g>
<g>
</g>
<g>
</g>
<g>
</g>
<g>
</g>
<g>
</g>
</svg>
