<?xml version="1.0" encoding="utf-8"?>
<!-- Generator: Adobe Illustrator 19.0.0, SVG Export Plug-In . SVG Version: 6.00 Build 0)  -->
<svg version="1.1" id="Layer_1" xmlns="http://www.w3.org/2000/svg" xmlns:xlink="http://www.w3.org/1999/xlink" x="0px" y="0px"
	 viewBox="0 0 659 659" style="enable-background:new 0 0 659 659;" xml:space="preserve">
<path d="M427.3,465.9c0,10.7-8.6,19.3-19.3,19.3h-59.2v57.9c0,10.7-8.6,19.3-19.3,19.3c-10.7,0-19.3-8.6-19.3-19.3v-57.9H251
	c-10.7,0-19.3-8.6-19.3-19.3c0-10.7,8.6-19.3,19.3-19.3h59.2v-60.5c0-10.7,8.6-19.3,19.3-19.3c10.7,0,19.3,8.6,19.3,19.3v60.5H408
	C418.7,446.6,427.3,455.3,427.3,465.9z M659,212.4c0,14.2,0,372.8,0,388.7c0,31.9-26,57.9-57.9,57.9c-24.3,0-520,0-543.2,0
	C26,659,0,633,0,601.1c0-16,0-374.6,0-388.7c0-31.9,26-57.9,57.9-57.9h96.5V96.5C154.5,43.3,197.8,0,251,0h157
	c53.2,0,96.5,43.3,96.5,96.5v57.9h96.5C633,154.5,659,180.4,659,212.4z M193.1,154.5h38.6V96.5c0-10.7,8.6-19.3,19.3-19.3h157
	c10.7,0,19.3,8.6,19.3,19.3v57.9h38.6V96.5c0-31.9-26-57.9-57.9-57.9H251c-31.9,0-57.9,26-57.9,57.9V154.5z M270.3,115.8v38.6h118.4
	v-38.6H270.3z M115.8,620.4c0-42.6-34.6-77.2-77.2-77.2v57.9c0,10.6,8.7,19.3,19.3,19.3H115.8z M620.4,543.2
	c-42.6,0-77.2,34.6-77.2,77.2h57.9c10.6,0,19.3-8.7,19.3-19.3V543.2z M620.4,308.9h-38.6v19.3c0,31.9-26,57.9-57.9,57.9
	c-31.9,0-57.9-26-57.9-57.9v-19.3H193.1v19.3c0,31.9-26,57.9-57.9,57.9c-31.9,0-57.9-26-57.9-57.9v-19.3H38.6v195.6
	c63.9,0,115.8,52,115.8,115.8h350.1c0-63.9,52-115.8,115.8-115.8V308.9z M135.1,347.5c10.6,0,19.3-8.7,19.3-19.3v-57.9h-38.6v57.9
	C115.8,338.9,124.5,347.5,135.1,347.5z M523.9,347.5c10.6,0,19.3-8.7,19.3-19.3v-57.9h-38.6v57.9
	C504.5,338.9,513.2,347.5,523.9,347.5z M620.4,212.4c0-10.6-8.7-19.3-19.3-19.3H57.9c-10.6,0-19.3,8.7-19.3,19.3v57.9h38.6V251
	c0-10.7,8.6-19.3,19.3-19.3h77.2c10.7,0,19.3,8.6,19.3,19.3v19.3h272.9V251c0-10.7,8.6-19.3,19.3-19.3h77.2
	c10.7,0,19.3,8.6,19.3,19.3v19.3h38.6V212.4z"/>
</svg>
