<?xml version="1.0" encoding="utf-8"?>
<!-- Generator: Adobe Illustrator 19.0.0, SVG Export Plug-In . SVG Version: 6.00 Build 0)  -->
<svg version="1.1" id="Layer_1" xmlns="http://www.w3.org/2000/svg" xmlns:xlink="http://www.w3.org/1999/xlink" x="0px" y="0px"
	 viewBox="0 0 153 184" style="enable-background:new 0 0 153 184;" xml:space="preserve">
<style type="text/css">
	.st0{stroke:#000000;stroke-miterlimit:10;}
</style>
<path class="st0" d="M92.6,47.2H81.9V36.5c0-4-3.2-7.2-7.2-7.2c-4,0-7.2,3.2-7.2,7.2v10.7H56.7c-4,0-7.2,3.2-7.2,7.2
	c0,4,3.2,7.2,7.2,7.2h10.7v10.7c0,4,3.2,7.2,7.2,7.2c4,0,7.2-3.2,7.2-7.2V61.6h10.7c4,0,7.2-3.2,7.2-7.2
	C99.8,50.4,96.6,47.2,92.6,47.2z M120.5,109.3c0-4.6-3.7-8.3-8.3-8.3H40.8c-4.6,0-8.3,3.7-8.3,8.3l0,0c0,4.6,3.7,8.3,8.3,8.3h71.5
	C116.8,117.5,120.5,113.8,120.5,109.3L120.5,109.3z M120.5,144.3c0-4.6-3.7-8.3-8.3-8.3H40.8c-4.6,0-8.3,3.7-8.3,8.3l0,0
	c0,4.6,3.7,8.3,8.3,8.3h71.5C116.8,152.5,120.5,148.8,120.5,144.3L120.5,144.3z M152.5,10.5c0-5.5-4.5-10-10-10h-132
	c-5.5,0-10,4.5-10,10v163c0,5.5,4.5,10,10,10h132c5.5,0,10-4.5,10-10V10.5z M140.6,170.7H12.4V13.3h128.2V170.7z"/>
</svg>
