<?xml version="1.0" encoding="utf-8"?>
<!-- Generator: Adobe Illustrator 19.0.0, SVG Export Plug-In . SVG Version: 6.00 Build 0)  -->
<svg version="1.1" id="Layer_1" xmlns="http://www.w3.org/2000/svg" xmlns:xlink="http://www.w3.org/1999/xlink" x="0px" y="0px"
	 viewBox="0 0 179 200" style="enable-background:new 0 0 179 200;" xml:space="preserve">
<path d="M36.7,200c-3.9-0.7-7.8-1.3-11.7-2c-16-3-23.4-11.2-24.8-27.3c-2.7-29.8,22.1-59.5,51.6-61.9c0.5,0,1,0,1.2,0
	c8.3,15.6,22.2,25.2,35.2,35.8c0.7,0.5,2.7,0.3,3.4-0.3c10.1-9.2,20.2-18.3,30-27.8c2.1-2,3.1-5,4.6-7.6c22.7,0.4,45.8,19.9,51.2,44
	c1.5,6.5,1.8,13.6,1.4,20.3c-0.9,12.8-7.6,20.4-20,23.7c-1.3,0.4-2.6,0.7-4,0.9c-7.2,1.5-14.6,2.2-22,2.2H36.7z M136.9,157.2l0-8.8
	h-7l0,8.8l-8.8,0v7.3l8.8,0v8.8l7,0l0-8.8l8.9-0.1v-7.2L136.9,157.2z M87.6,0c4.9,0,9.9,0.7,14.5,2.4c0,0,0,0,0.1,0
	c18.3,6.3,31.1,24.2,31.1,44.6c0,14.3-2.5,28.3-9.8,40.8c-3.5,6-7.8,11.8-12.8,16.5c-12.6,11.6-31.9,11.7-44.9,0.5
	c-13.9-11.9-19.6-28-22.1-45.6c-1.4-9.7-1.5-19.3,2.1-28.6C51.9,15,62.8,4.7,79.5,0.9c0,0,0,0,0,0C81.6,0.4,83.7,0,85.9,0H87.6z
	 M49.4,57c-0.2,12.4,6.5,29,15.2,38.3c14.2,15.2,33.7,14.9,47.5-0.7c8.5-9.7,12.8-21.3,14.6-33.9c0.5-3.2,0.7-6.5,1-9.8
	c-0.4-0.1-0.8-0.2-1.2-0.4c-1.2,1.6-2.3,3.1-4.3,5.7c-0.5-10.9-5-18.8-9.3-26.1c-5.5,1.9-10.1,3.9-14.9,5c-11.8,2.6-23.2,0-34.2-4.4
	c-4.9-2-6.8,0-8.2,3.9c-0.6,1.7-1.1,3.5-1.2,5.3c-0.1,6.1-0.1,12.3-0.1,18.6C52.8,58,51.2,57.5,49.4,57z"/>
</svg>
