<?xml version="1.0" encoding="utf-8"?>
<!-- Generator: Adobe Illustrator 19.0.0, SVG Export Plug-In . SVG Version: 6.00 Build 0)  -->
<svg version="1.1" id="Layer_1" xmlns="http://www.w3.org/2000/svg" xmlns:xlink="http://www.w3.org/1999/xlink" x="0px" y="0px"
	 viewBox="0 0 902.8 833" style="enable-background:new 0 0 902.8 833;" xml:space="preserve">
<path d="M241.4,681.2c-3.8,9-12.6,14.4-21.9,14.4c-3.1,0-6.3-0.6-9.3-1.9c-53.6-22.9-88-75.3-87.6-133.6l0.1-12.4
	c0.1-13.1,10.7-23.6,23.8-23.6c0.1,0,0.1,0,0.2,0c13.1,0.1,23.7,10.8,23.6,23.9l-0.1,12.4c-0.3,39.1,22.8,74.3,58.7,89.6
	C240.9,655.2,246.5,669.2,241.4,681.2z M149.6,506.9c13.1,0,23.7-10.6,23.7-23.8c0-13.1-10.6-23.8-23.7-23.8
	c-13.1,0-23.7,10.6-23.7,23.8C125.8,496.2,136.5,506.9,149.6,506.9z M892.4,766.4c0,0-0.2,0.2-0.2,0.2
	c-37.8,42.6-92.2,65.8-149.2,63.5l-325.8-13.1c-41.4-1.7-83.2,0.7-124.1,7.1l-39.9,6.2c-11.4,1.8-22.8,2.6-34.2,2.6
	c-70,0-136.1-33.4-177.8-91.6C-7,674-13.4,586.5,24.6,512.9l5-11.7c15.8-37,22.7-77.8,19.9-117.9L24.8,60.6
	C23.7,45,29.2,29.4,39.9,18C50.6,6.6,65.7,0,81.3,0h209.5c31.2,0,56.6,25.4,56.6,56.7v199.8c2.9,90.8,23.8,114.2,48.1,141.2
	c3.8,4.3,7.8,8.7,11.8,13.4c146.7,174.5,326.9,205,413.6,219.7c7.1,1.2,13.6,2.3,19.4,3.4c0.8,0.2,1.6,0.3,2.4,0.6l13,3.8
	c26,7.6,30.3,27.8,37.8,53.8C901,718.4,910.4,746.1,892.4,766.4z M832.1,705.5c-3-10.3-26.7-18.3-37-21.4l-11.8-3.5
	c-5.3-1,4.6-1.9-1.8-3c-92.2-15.6-305.7-50.1-426.3-235.9c-3.5-4.2-7-8.1-10.8-12.3c-28-31.2-56.9-63.4-60.2-171.9
	c0-0.2,0-0.5,0-0.7V72.4c0-5-4.1-9.1-9.1-9.1h-178c-2.5,0-5,1.1-6.7,2.9c-1.7,1.8-2.6,4.4-2.4,6.9l24.6,307
	c3.3,47.6-4.9,96-23.6,139.9l-5.3,12.5c-0.2,0.6-0.5,1.1-0.8,1.6c-30.1,57.8-25.2,126.7,12.8,179.7c38,53,85.9,64,150.4,54l39.9-6.2
	c44-6.8,88.8-9.4,133.3-7.6L744.9,767c42.6,1.7,52,0.1,80.4-31.9c0,0,0.2-0.2,0.2-0.2C832.6,726.8,835.1,715.8,832.1,705.5z"/>
</svg>
