<?xml version="1.0" encoding="iso-8859-1"?>
<!-- Generator: Adobe Illustrator 19.0.0, SVG Export Plug-In . SVG Version: 6.00 Build 0)  -->
<svg version="1.1" id="Capa_1" xmlns="http://www.w3.org/2000/svg" xmlns:xlink="http://www.w3.org/1999/xlink" x="0px" y="0px"
	 viewBox="0 0 512 512" style="enable-background:new 0 0 512 512;" xml:space="preserve">
<g>
	<g>
		<circle cx="286" cy="437" r="15"/>
	</g>
</g>
<g>
	<g>
		<circle cx="196" cy="317" r="15"/>
	</g>
</g>
<g>
	<g>
		<circle cx="376" cy="407" r="15"/>
	</g>
</g>
<g>
	<g>
		<path d="M468.09,382.04L331.001,162.698V87.42c17.459-6.192,30-22.865,30-42.42c0-24.813-20.187-45-45-45h-120
			c-24.813,0-45,20.187-45,45c0,19.555,12.541,36.228,30,42.42v75.278c-3.536,5.657-132.95,212.721-137.088,219.342
			C8.553,438.612,49.519,512,115.942,512H396.06C462.501,512,503.437,438.595,468.09,382.04z M208.721,174.95
			c1.49-2.384,2.28-5.139,2.28-7.95V75c0-8.284-6.716-15-15-15c-8.271,0-15-6.729-15-15s6.729-15,15-15h120c8.271,0,15,6.729,15,15
			s-6.729,15-15,15c-8.284,0-15,6.716-15,15v92c0,2.811,0.79,5.566,2.28,7.95l37.769,60.43c-31.828-7.983-66.056-4.65-96.22,10.434
			c-26.123,13.062-56.574,14.955-83.958,5.697L208.721,174.95z M396.06,482H115.942c-42.976,0-69.454-47.481-46.589-84.06
			l75.274-120.439c36.751,14.546,78.385,12.763,113.619-4.855c33.534-16.768,75.005-16.114,111.034,7.903l73.37,117.391
			C465.521,434.532,439.021,482,396.06,482z"/>
	</g>
</g>
<g>
	<g>
		<path d="M196.001,362c-24.813,0-45,20.187-45,45s20.187,45,45,45c24.813,0,45-20.187,45-45S220.814,362,196.001,362z M196.001,422
			c-8.271,0-15-6.729-15-15s6.729-15,15-15s15,6.729,15,15S204.272,422,196.001,422z"/>
	</g>
</g>
<g>
	<g>
		<path d="M316.001,302c-24.813,0-45,20.187-45,45s20.187,45,45,45s45-20.187,45-45S340.814,302,316.001,302z M316.001,362
			c-8.271,0-15-6.729-15-15s6.729-15,15-15s15,6.729,15,15S324.272,362,316.001,362z"/>
	</g>
</g>
<g>
</g>
<g>
</g>
<g>
</g>
<g>
</g>
<g>
</g>
<g>
</g>
<g>
</g>
<g>
</g>
<g>
</g>
<g>
</g>
<g>
</g>
<g>
</g>
<g>
</g>
<g>
</g>
<g>
</g>
</svg>
