<?xml version="1.0" encoding="utf-8"?>
<!-- Generator: Adobe Illustrator 19.0.0, SVG Export Plug-In . SVG Version: 6.00 Build 0)  -->
<svg version="1.1" id="Layer_1" xmlns="http://www.w3.org/2000/svg" xmlns:xlink="http://www.w3.org/1999/xlink" x="0px" y="0px"
	 viewBox="0 0 1004 853" style="enable-background:new 0 0 1004 853;" xml:space="preserve">
<path d="M711.2,603.3H606.6v104c0,11.5-9.4,20.8-20.9,20.8H418.3c-11.6,0-20.9-9.3-20.9-20.8v-104H292.8c-11.6,0-20.9-9.3-20.9-20.8
	V416.1c0-11.5,9.4-20.8,20.9-20.8h104.6v-104c0-11.5,9.4-20.8,20.9-20.8h167.3c11.5,0,20.9,9.3,20.9,20.8v104h104.6
	c11.6,0,20.9,9.3,20.9,20.8v166.4C732.1,594,722.7,603.3,711.2,603.3L711.2,603.3z M662,446.3h-88.9c-9.8,0-17.8-7.9-17.8-17.7
	v-88.4H448.7v88.4c0,9.8-8,17.7-17.8,17.7H342v106.1h88.9c9.8,0,17.8,7.9,17.8,17.7v88.4h106.7v-88.4c0-9.8,8-17.7,17.8-17.7H662
	V446.3L662,446.3z M883.5,853H120.5C54,852.9,0.1,799.3,0,733.2V265.5c0.1-66.1,54-119.7,120.5-119.8h214.2V86.1
	c0-49.9,33.9-86.1,80.6-86.1h165.9c48.6,0,88.1,38.6,88.1,86.1v59.5h214.2c66.5,0.1,120.4,53.7,120.5,119.8v467.7
	C1003.9,799.3,950,852.9,883.5,853L883.5,853z M615,86.8c0-22.1-18.7-40-41.7-40H424c-24.1,0-34.9,20.1-34.9,40v53.6H615V86.8
	L615,86.8z M943.8,723.8v-449c0-41.4-33.8-75-75.5-75.1H135.7c-41.7,0-75.4,33.6-75.5,75.1v449c0,41.4,33.8,75,75.5,75.1h732.6
	C910,798.9,943.8,765.2,943.8,723.8L943.8,723.8L943.8,723.8z"/>
</svg>
