<?xml version="1.0" encoding="utf-8"?>
<!-- Generator: Adobe Illustrator 19.0.0, SVG Export Plug-In . SVG Version: 6.00 Build 0)  -->
<svg version="1.1" id="Layer_1" xmlns="http://www.w3.org/2000/svg" xmlns:xlink="http://www.w3.org/1999/xlink" x="0px" y="0px"
	 viewBox="0 0 715 715" style="enable-background:new 0 0 715 715;" xml:space="preserve">
<path d="M664.1,561.8c11.7-11.7,30.5-11.7,42.2,0c11.7,11.7,11.7,30.5,0,42.2L604.1,706.1c-16.8,16.8-36.3,5.8-42.2,0
	c-11.7-11.7-11.7-30.5,0-42.2l30.2-30.1l-37.2-37.2l-54.7,54.7l-44.9,44.9c-16.3,16.3-36.3,5.8-42.2,0c-11.7-11.7-11.7-30.5,0-42.2
	l23.9-23.8L190.3,383.9c-46.3-46.3-52.5-117.3-18.8-170.3L8.8,50.9C-2.9,39.2-2.9,20.4,8.8,8.8c11.7-11.7,30.5-11.7,42.2,0
	l162.7,162.5c78.4-46.7,144.5-7,170.3,18.8l246.4,246.6l23.9-23.9c11.7-11.7,30.5-11.7,42.2,0c11.7,11.7,11.7,30.5,0,42.2
	l-99.7,99.7l37.2,37.2L664.1,561.8L664.1,561.8z M341.7,232.1c-37.9-37.8-88-21.4-109.4,0c-30.2,30.1-30.2,79.1,0,109.3l0.1,0.1
	l37.1-37.1c11.7-11.7,30.5-11.7,42.2,0c11.7,11.7,11.7,30.5,0,42.2l-37.1,37.1l28.6,28.9l37.1-37.1c11.7-11.7,30.5-11.7,42.2,0
	c11.7,11.7,11.7,30.5,0,42.2l-37.1,37.1l28.7,28.7l37.1-37.1c11.7-11.7,30.5-11.7,42.2,0c11.7,11.7,11.7,30.5,0,42.2l-37.1,37.1
	l62.7,62.6l109.4-109.6L341.7,232.1L341.7,232.1z M132.9,714.2c-71.2,0-129.1-57.9-129.1-129.1c0-65.2,91.2-147.5,109.6-163.4
	c11.1-9.6,27.7-9.6,39,0c18.2,15.8,109.6,98.2,109.7,163.4C262.1,656.3,204.1,714.2,132.9,714.2L132.9,714.2z M132.8,484.7
	c-33,32.4-69.6,77.2-69.6,100.4c0,38.2,31.2,69.5,69.6,69.5c38.4,0,69.6-31.2,69.6-69.5C202.4,561.8,165.8,517.1,132.8,484.7
	L132.8,484.7z"/>
</svg>
