<svg xmlns="http://www.w3.org/2000/svg" xmlns:xlink="http://www.w3.org/1999/xlink" preserveAspectRatio="xMidYMid" width="53" height="26" viewBox="0 0 53 26">
  <defs>
    <style>
      .cls-1 {
        fill: #d7d7d7;
        fill-rule: evenodd;
      }
    </style>
  </defs>
  <path d="M49.927,12.999 L34.295,12.999 L32.392,7.150 C32.243,6.692 31.810,6.331 31.349,6.398 C30.877,6.409 30.468,6.731 30.340,7.195 L27.206,18.428 L23.827,2.859 C23.724,2.388 23.335,2.040 22.864,2.001 C22.397,1.969 21.956,2.240 21.781,2.689 L17.753,12.999 L2.075,12.999 C1.481,12.999 1.001,13.491 1.001,14.099 C1.001,14.707 1.481,15.199 2.075,15.199 L18.481,15.199 C18.919,15.200 19.316,14.926 19.478,14.507 L22.485,6.813 L26.026,23.139 C26.133,23.631 26.552,23.985 27.044,24.001 C27.054,24.001 27.064,24.001 27.075,24.001 C27.553,24.001 27.975,23.677 28.107,23.204 L31.452,11.220 L32.501,14.447 C32.648,14.896 33.059,15.199 33.521,15.199 L49.927,15.199 C50.521,15.199 51.001,14.707 51.001,14.099 C51.001,13.491 50.521,12.999 49.927,12.999 Z" class="cls-1"/>
</svg>
